<?xml version="1.0" encoding="UTF-8"?>
<svg xmlns="http://www.w3.org/2000/svg" xmlns:xlink="http://www.w3.org/1999/xlink" width="42.964" height="54.18" viewBox="0 0 42.964 54.18">
  <defs>
    <clipPath id="clip-path">
      <rect id="Rectángulo_15" data-name="Rectángulo 15" width="42.964" height="54.18" fill="none"></rect>
    </clipPath>
  </defs>
  <g id="Grupo_6" data-name="Grupo 6" transform="translate(0 0)">
    <g id="Grupo_5" data-name="Grupo 5" transform="translate(0 0)" clip-path="url(#clip-path)">
      <path id="Trazado_4" data-name="Trazado 4" d="M18.057,25.537l1.81,11.887h2.168L25.4,19.743c-.33-.024-.659-.049-1-.049H23.319a15.671,15.671,0,0,1-14.2,0H8.032c-.337,0-.668.024-1,.049L10.4,37.424h2.166l1.81-11.887h.065l-1.778-3.264H19.77l-1.776,3.264Z" transform="translate(5.265 14.739)" fill="#fff"></path>
      <path id="Trazado_5" data-name="Trazado 5" d="M30.666,19.722,27.3,37.405H15.667L12.3,19.722A13.288,13.288,0,0,0,0,32.968v6.453H42.964V32.968a13.288,13.288,0,0,0-12.3-13.246" transform="translate(0 14.76)" fill="#1d1d1b"></path>
      <path id="Trazado_6" data-name="Trazado 6" d="M10.2,36.321h7.3l-1.81-11.887h-.063L17.4,21.17H10.3l1.778,3.264H12.01Z" transform="translate(7.633 15.843)" fill="#efc515"></path>
      <path id="Trazado_7" data-name="Trazado 7" d="M1.625,20.592V21.75A3.667,3.667,0,0,0,5.36,25.341h.219a14.864,14.864,0,0,0,7.588,9.092,15.667,15.667,0,0,0,14.2,0,14.855,14.855,0,0,0,7.586-9.092h.22a3.667,3.667,0,0,0,3.733-3.591V20.592a3.627,3.627,0,0,0-2.937-3.5,13.692,13.692,0,0,0,.1-1.572l-.007-.15a9.211,9.211,0,0,0-.061-1.2A14.183,14.183,0,0,0,22.238,1.362l-.173-.136a.552.552,0,0,0-.42-.192.861.861,0,0,0-.584.311h-.047C20.184.514,19.56,0,19.027,0h0a12.915,12.915,0,0,0-3.665,1.462c-.17.128-.358.29-.559.472A14.171,14.171,0,0,0,4.644,15.52c0,.1.007.2.009.292a10.717,10.717,0,0,0,.047,1.28,3.613,3.613,0,0,0-3.075,3.5m33.946-1.407a1.474,1.474,0,0,1,1.138,1.407V21.75a1.5,1.5,0,0,1-1.32,1.458,13.813,13.813,0,0,0,.117-1.731,13.222,13.222,0,0,0-.122-1.673c.065-.2.131-.409.187-.619m-28.191.421c.045-.287.107-.563.173-.843a18.979,18.979,0,0,0,4.957-4.808s14.483,3.394,19.758,3.782c.15.012.294.017.432.019a11.593,11.593,0,0,1,.533,5.065,11.907,11.907,0,0,1-.463,2.2,13,13,0,0,1-12.5,9,13,13,0,0,1-12.506-9,12.16,12.16,0,0,1-.54-3.549,12,12,0,0,1,.161-1.871m-3.56.986A1.486,1.486,0,0,1,5.108,19.15c0,.281.014.559.019.841a12.26,12.26,0,0,0-.1,1.486,13.813,13.813,0,0,0,.115,1.731A1.5,1.5,0,0,1,3.821,21.75Z" transform="translate(1.216 0)" fill="#1d1d1b"></path>
    </g>
  </g>
</svg>
