<?xml version="1.0" encoding="UTF-8"?>
<svg xmlns="http://www.w3.org/2000/svg" xmlns:xlink="http://www.w3.org/1999/xlink" width="63.518" height="54.18" viewBox="0 0 63.518 54.18">
  <defs>
    <clipPath id="clip-path">
      <rect id="Rectángulo_16" data-name="Rectángulo 16" width="63.518" height="54.18" fill="none"></rect>
    </clipPath>
  </defs>
  <g id="Grupo_8" data-name="Grupo 8" transform="translate(0 0)">
    <g id="Grupo_7" data-name="Grupo 7" transform="translate(0 0)" clip-path="url(#clip-path)">
      <path id="Trazado_8" data-name="Trazado 8" d="M26.679,1.507A25.579,25.579,0,0,1,48.428,13l1.287-.781a26.923,26.923,0,1,0,1.239,2.07l-1.291.779A25.578,25.578,0,1,1,26.679,1.507" transform="translate(-0.001 0.001)" fill="#1d1d1b"></path>
      <path id="Trazado_9" data-name="Trazado 9" d="M25.267,7.436a18.1,18.1,0,0,1,15.242,7.886l5.18-3.129a24.158,24.158,0,1,0,1.233,2.072l-5.2,3.139A18.113,18.113,0,1,1,25.267,7.436" transform="translate(1.531 1.532)" fill="#1d1d1b"></path>
      <path id="Trazado_10" data-name="Trazado 10" d="M22.2,10.313a12.063,12.063,0,0,1,9.959,4.978l5.186-3.131a18.555,18.555,0,1,0,1.216,2.081l-5.182,3.131A12.079,12.079,0,1,1,22.2,10.313" transform="translate(4.694 4.696)" fill="#fff"></path>
      <path id="Trazado_11" data-name="Trazado 11" d="M19.134,13.19a6.026,6.026,0,0,1,4.657,2.081L29,12.127a12.034,12.034,0,1,0,1.22,2.079L24.979,17.37a6.108,6.108,0,0,1,.292,1.764,6.042,6.042,0,1,1-6.137-5.944" transform="translate(7.86 7.86)" fill="#1d1d1b"></path>
      <path id="Trazado_12" data-name="Trazado 12" d="M16.866,14.376l3.758-2.27a5.984,5.984,0,1,0,1.191,2.1L17.964,16.53a1.067,1.067,0,0,1-1.438-.328l-.057-.088a1.241,1.241,0,0,1,.4-1.739" transform="translate(11.024 11.024)" fill="#fff"></path>
      <path id="Trazado_13" data-name="Trazado 13" d="M47.479,10.409a.782.782,0,0,0,.762-.021l.8-.481a.387.387,0,0,0,.187-.344.378.378,0,0,0-.206-.334L45.335,7.287l.414-.248a.393.393,0,0,0,.176-.244.386.386,0,0,0-.048-.3l-.519-.831a.391.391,0,0,0-.533-.128L44.4,5.8l-.09-4.12a.384.384,0,0,0-.2-.332.389.389,0,0,0-.388.006l-.792.479a.771.771,0,0,0-.374.678l.094,4.344-.208.13-.092-4.122a.388.388,0,0,0-.592-.323l-.792.477a.772.772,0,0,0-.374.68l.1,4.344-.214.128-.09-4.12a.392.392,0,0,0-.592-.325L39,4.2a.775.775,0,0,0-.374.678l.082,3.7a.387.387,0,0,1-.185.336l-3.1,1.873-1.289.781-1.207.726-5.18,3.129L22.56,18.56,17.355,21.7,13.6,23.973a1.241,1.241,0,0,0-.4,1.739l.057.088a1.064,1.064,0,0,0,1.436.328L18.543,23.8l5.237-3.164,5.182-3.129,5.2-3.139,1.209-.731,1.291-.779,3.1-1.871a.38.38,0,0,1,.378-.013l3.418,1.8a.771.771,0,0,0,.762-.021l.8-.481a.39.39,0,0,0-.021-.678l-3.683-1.94.2-.122L45.518,11.6a.777.777,0,0,0,.762-.023l.794-.479a.4.4,0,0,0,.191-.346.391.391,0,0,0-.208-.334L43.374,8.475l.2-.124Z" transform="translate(14.294 1.427)" fill="#efc515"></path>
    </g>
  </g>
</svg>
