<?xml version="1.0" encoding="UTF-8"?>
<svg xmlns="http://www.w3.org/2000/svg" xmlns:xlink="http://www.w3.org/1999/xlink" width="62" height="54.18" viewBox="0 0 62 54.18">
  <defs>
    <clipPath id="clip-path">
      <rect id="Rectángulo_14" data-name="Rectángulo 14" width="62" height="54.18" fill="none"></rect>
    </clipPath>
  </defs>
  <g id="Grupo_4" data-name="Grupo 4" transform="translate(0 0)">
    <g id="Grupo_3" data-name="Grupo 3" transform="translate(0 0)" clip-path="url(#clip-path)">
      <path id="Trazado_2" data-name="Trazado 2" d="M35.368,7.108A7.105,7.105,0,0,0,21.79,4.177,7.106,7.106,0,1,0,9.93,11.738a7.381,7.381,0,0,0,.794.79L21.563,23.293a.345.345,0,0,0,.485,0L33.292,12.125l0,0a7.083,7.083,0,0,0,2.079-5.015" transform="translate(6.435 0.001)" fill="#efc515"></path>
      <path id="Trazado_3" data-name="Trazado 3" d="M61.98,22.766l.02-.055c-4.478,0-7.22-2.731-10.516-5.031a14.834,14.834,0,0,0-8.938-3.113c-1.736,0-3.208.014-4.46.052H28.979a2.412,2.412,0,1,0,0,4.824h8.551a3.615,3.615,0,0,1,1.161,6.742c-.271.073-1.579.421-3.326.883-1.126.271-2.194.557-3.2.847l-.216.055c-3.754.994-7.8,2.059-8.533,2.23a4.452,4.452,0,0,1-1.318-.093L8.63,21.376,6.191,19.611l0,.005a3.051,3.051,0,0,0-.364-.209,3.448,3.448,0,0,0-.562-.232,3.909,3.909,0,0,0-.476-.105,3.678,3.678,0,0,0-.528-.043,3.363,3.363,0,0,0-.7.071A3.876,3.876,0,0,0,0,22.955a3.825,3.825,0,0,0,1.156,2.739l0,0,.018.014a4.046,4.046,0,0,0,.955.7l.928.674L24.169,42.388l0,0,.26.1a4.41,4.41,0,0,0,2.414.18l.105-.027C34.1,40.818,48.885,37.062,55.8,35.358l.5-.187A28.233,28.233,0,0,1,61.98,34.2v-1.01l.02,0L61.98,31.8V22.766Z" transform="translate(0 11.422)" fill="#1d1d1b"></path>
    </g>
  </g>
</svg>
